<svg width="43" height="43" viewBox="0 0 43 43" fill="none" xmlns="http://www.w3.org/2000/svg">
<g filter="url(#filter0_d_25_29)">
<path d="M16.2863 30.6375L30.6375 21.5L16.2863 12.3625V30.6375ZM21.5 43C18.5617 43 15.7846 42.4356 13.1688 41.3069C10.5529 40.1781 8.26854 38.6373 6.31563 36.6844C4.36271 34.7315 2.82187 32.4471 1.69312 29.8313C0.564375 27.2154 0 24.4383 0 21.5C0 18.5258 0.564375 15.7308 1.69312 13.115C2.82187 10.4992 4.36271 8.22375 6.31563 6.28875C8.26854 4.35375 10.5529 2.82187 13.1688 1.69312C15.7846 0.564375 18.5617 0 21.5 0C24.4742 0 27.2692 0.564375 29.885 1.69312C32.5008 2.82187 34.7763 4.35375 36.7113 6.28875C38.6463 8.22375 40.1781 10.4992 41.3069 13.115C42.4356 15.7308 43 18.5258 43 21.5C43 24.4383 42.4356 27.2154 41.3069 29.8313C40.1781 32.4471 38.6463 34.7315 36.7113 36.6844C34.7763 38.6373 32.5008 40.1781 29.885 41.3069C27.2692 42.4356 24.4742 43 21.5 43ZM21.5 39.775C26.5883 39.775 30.9062 37.9923 34.4538 34.4269C38.0013 30.8615 39.775 26.5525 39.775 21.5C39.775 16.4117 38.0013 12.0938 34.4538 8.54625C30.9062 4.99875 26.5883 3.225 21.5 3.225C16.4475 3.225 12.1385 4.99875 8.57313 8.54625C5.00771 12.0938 3.225 16.4117 3.225 21.5C3.225 26.5525 5.00771 30.8615 8.57313 34.4269C12.1385 37.9923 16.4475 39.775 21.5 39.775Z" fill="white"/>
</g>
<defs>
<filter id="filter0_d_25_29" x="-5" y="-5" width="53" height="53" filterUnits="userSpaceOnUse" color-interpolation-filters="sRGB">
<feFlood flood-opacity="0" result="BackgroundImageFix"/>
<feColorMatrix in="SourceAlpha" type="matrix" values="0 0 0 0 0 0 0 0 0 0 0 0 0 0 0 0 0 0 127 0" result="hardAlpha"/>
<feOffset/>
<feGaussianBlur stdDeviation="2.5"/>
<feComposite in2="hardAlpha" operator="out"/>
<feColorMatrix type="matrix" values="0 0 0 0 0 0 0 0 0 0 0 0 0 0 0 0 0 0 0.5 0"/>
<feBlend mode="normal" in2="BackgroundImageFix" result="effect1_dropShadow_25_29"/>
<feBlend mode="normal" in="SourceGraphic" in2="effect1_dropShadow_25_29" result="shape"/>
</filter>
</defs>
</svg>
